<?xml version="1.0" encoding="iso-8859-1"?>
<!-- Generator: Adobe Illustrator 16.0.0, SVG Export Plug-In . SVG Version: 6.00 Build 0)  -->
<!DOCTYPE svg PUBLIC "-//W3C//DTD SVG 1.1//EN" "http://www.w3.org/Graphics/SVG/1.1/DTD/svg11.dtd" [
	<!ENTITY ns_extend "http://ns.adobe.com/Extensibility/1.0/">
	<!ENTITY ns_ai "http://ns.adobe.com/AdobeIllustrator/10.0/">
	<!ENTITY ns_graphs "http://ns.adobe.com/Graphs/1.0/">
	<!ENTITY ns_vars "http://ns.adobe.com/Variables/1.0/">
	<!ENTITY ns_imrep "http://ns.adobe.com/ImageReplacement/1.0/">
	<!ENTITY ns_sfw "http://ns.adobe.com/SaveForWeb/1.0/">
	<!ENTITY ns_custom "http://ns.adobe.com/GenericCustomNamespace/1.0/">
	<!ENTITY ns_adobe_xpath "http://ns.adobe.com/XPath/1.0/">
]>
<svg version="1.1" id="Layer_1" xmlns:x="&ns_extend;" xmlns:i="&ns_ai;" xmlns:graph="&ns_graphs;"
	 xmlns="http://www.w3.org/2000/svg" xmlns:xlink="http://www.w3.org/1999/xlink" x="0px" y="0px" width="171.6px" height="81.2px"
	 viewBox="0 0 171.6 81.2" style="enable-background:new 0 0 171.6 81.2;" xml:space="preserve">
<metadata>
	<sfw  xmlns="&ns_sfw;">
		<slices></slices>
		<sliceSourceBounds  height="81.2" width="170.9" y="0" x="0" bottomLeftOrigin="true"></sliceSourceBounds>
	</sfw>
</metadata>
<polygon style="fill:#94A000;" points="39.9,0 0,47.6 39.9,47.6 60.9,23.8 "/>
<polygon style="fill:#D1DD33;" points="39.9,0 78.1,47.6 99.9,25.1 79.2,0 "/>
<polygon style="fill:#EFEFEF;" points="98.9,33.6 77.9,55.1 98.9,81.2 138.8,33.6 "/>
<polygon style="fill:#F9F9F9;" points="38.9,56 59.6,81.2 98.9,81.2 59.9,32.7 "/>
<g>
	<g>
		<path style="fill:#D1DD33;" d="M114.5,5.5h3.5v12.4h6.1v2.9h-9.5V5.5z"/>
		<path style="fill:#D1DD33;" d="M139.2,12.9c0,5-3,8-7.5,8c-4.5,0-7.2-3.4-7.2-7.8c0-4.6,2.9-8,7.4-8
			C136.6,5.2,139.2,8.7,139.2,12.9z M128.2,13.1c0,3,1.4,5.1,3.7,5.1c2.3,0,3.7-2.2,3.7-5.2c0-2.7-1.3-5.1-3.7-5.1
			C129.5,8,128.2,10.2,128.2,13.1z"/>
		<path style="fill:#D1DD33;" d="M154.2,20c-1.1,0.4-3.1,0.9-5.1,0.9c-2.8,0-4.8-0.7-6.2-2.1c-1.4-1.3-2.2-3.3-2.1-5.5
			c0-5.1,3.7-8,8.7-8c2,0,3.5,0.4,4.2,0.7L153,8.8c-0.8-0.4-1.9-0.7-3.6-0.7c-2.9,0-5,1.6-5,4.9c0,3.1,2,5,4.8,5
			c0.8,0,1.4-0.1,1.7-0.2v-3.2h-2.4V12h5.7V20z"/>
		<path style="fill:#D1DD33;" d="M170.9,12.9c0,5-3,8-7.5,8c-4.5,0-7.2-3.4-7.2-7.8c0-4.6,2.9-8,7.4-8
			C168.3,5.2,170.9,8.7,170.9,12.9z M159.8,13.1c0,3,1.4,5.1,3.7,5.1c2.3,0,3.7-2.2,3.7-5.2c0-2.7-1.3-5.1-3.7-5.1
			C161.2,8,159.8,10.2,159.8,13.1z"/>
	</g>
</g>
</svg>
